<?xml version="1.0" standalone="no"?>
<!DOCTYPE svg PUBLIC "-//W3C//DTD SVG 20010904//EN"
 "http://www.w3.org/TR/2001/REC-SVG-20010904/DTD/svg10.dtd">
<svg version="1.0" xmlns="http://www.w3.org/2000/svg"
 width="400.000000pt" height="400.000000pt" viewBox="0 0 400.000000 400.000000"
 preserveAspectRatio="xMidYMid meet">
<metadata>
Created by potrace 1.16, written by Peter Selinger 2001-2019
</metadata>
<g transform="translate(0.000000,400.000000) scale(0.044444,-0.070053)"
fill="#000000" stroke="none">
<path d="M4110 5629 c-184 -10 -425 -35 -605 -60 -434 -62 -970 -199 -1159
-297 -95 -50 -182 -132 -217 -206 -48 -102 -52 -142 -46 -501 11 -641 82
-1131 244 -1680 105 -358 308 -822 483 -1110 395 -647 771 -1059 1390 -1525
196 -147 224 -162 302 -161 81 0 136 27 293 146 583 440 931 814 1307 1405
175 276 251 419 373 705 304 713 454 1521 443 2380 l-3 251 -33 67 c-62 125
-156 196 -385 289 -322 131 -847 238 -1362 278 -77 6 -158 13 -180 15 -79 10
-703 13 -845 4z m692 -24 c102 -3 197 -8 210 -10 12 -2 59 -6 103 -10 365 -28
753 -91 1049 -169 299 -79 538 -186 623 -280 58 -63 91 -127 103 -198 16 -96
-2 -734 -25 -908 -2 -19 -7 -64 -10 -100 -8 -88 -32 -250 -56 -390 -88 -507
-237 -968 -464 -1438 -86 -177 -133 -257 -303 -517 -368 -562 -696 -910 -1257
-1332 -156 -118 -194 -136 -271 -137 -47 0 -71 6 -107 26 -62 35 -381 280
-532 409 -143 121 -420 398 -526 524 -222 263 -518 704 -649 964 -276 551
-465 1180 -536 1786 -3 33 -8 68 -10 77 -1 9 -6 59 -10 110 -3 51 -8 95 -10
99 -7 13 -19 376 -19 594 1 223 2 244 23 299 31 84 63 129 129 181 81 63 150
97 293 144 321 104 759 194 1175 240 271 30 270 30 575 37 157 4 287 8 288 10
2 1 9 1 15 -1 7 -2 96 -6 199 -10z"/>
<path d="M4135 5444 c-27 -2 -122 -8 -210 -14 -522 -36 -992 -135 -1388 -294
-168 -68 -214 -98 -252 -168 l-30 -53 0 -255 c1 -608 52 -1038 180 -1525 73
-278 223 -685 349 -949 323 -673 768 -1219 1413 -1733 182 -145 253 -193 299
-200 31 -5 46 1 132 60 300 204 711 584 972 898 353 424 623 895 816 1424 219
598 346 1382 340 2110 -1 169 -1 170 -31 224 -40 72 -94 107 -285 180 -377
145 -758 228 -1280 277 -145 14 -902 27 -1025 18z m221 -183 c37 -23 68 -70
85 -131 15 -56 15 -241 0 -296 -18 -67 -64 -121 -113 -135 -142 -38 -210 50
-211 271 -1 63 4 133 11 156 36 124 143 187 228 135z m441 -17 c39 -29 63 -80
63 -137 0 -77 -22 -115 -88 -152 -1 -1 5 -19 14 -41 9 -21 31 -80 50 -130 l33
-91 -47 5 c-26 3 -50 10 -54 16 -5 6 -25 62 -45 124 -36 107 -39 112 -65 112
l-28 0 0 -126 0 -125 -42 3 c-42 3 -43 4 -46 43 -2 22 -1 150 3 284 l7 243
109 -4 c89 -3 113 -7 136 -24z m410 -38 c34 -37 49 -76 39 -101 -9 -24 -86
-17 -86 8 0 21 -44 57 -70 57 -50 0 -63 -29 -68 -150 -2 -60 -1 -129 2 -154
20 -129 146 -145 146 -19 0 41 -1 43 -30 43 -28 0 -30 2 -30 41 l0 42 64 -5
c35 -3 69 -9 75 -12 7 -4 11 -40 11 -89 -1 -142 -43 -197 -152 -197 -66 0
-108 28 -142 92 -24 48 -29 71 -33 161 -6 110 7 208 33 259 43 83 175 96 241
24z m-1225 17 c27 -15 36 -30 47 -74 14 -53 13 -57 -11 -110 l-25 -55 23 -29
c12 -17 25 -46 28 -65 8 -51 -13 -128 -43 -161 -28 -31 -66 -41 -203 -53 l-68
-7 0 285 0 285 53 4 c90 8 165 0 199 -20z m1450 -12 c4 -3 8 -52 9 -109 2
-118 0 -117 97 -128 l62 -7 0 113 0 112 33 -7 c17 -4 33 -8 34 -9 6 -5 4 -546
-2 -556 -8 -14 -38 -13 -53 2 -8 8 -12 53 -12 134 l0 123 -52 10 c-29 5 -65
11 -80 14 l-28 4 0 -134 0 -135 -32 7 c-18 4 -37 11 -43 16 -5 5 -11 127 -13
289 l-3 279 38 -6 c21 -3 41 -8 45 -12z m-1808 -22 c3 -17 6 -139 6 -270 0
-261 -2 -269 -61 -269 l-29 0 -2 128 c0 70 -1 133 -1 140 1 6 -3 12 -7 12 -4
0 -24 -62 -45 -137 -20 -76 -41 -145 -45 -153 -10 -17 -12 -12 -69 148 -21 56
-40 99 -44 96 -4 -4 -7 -65 -7 -136 l0 -128 -26 -10 c-56 -22 -54 -33 -54 259
0 296 1 301 60 301 25 0 31 -6 48 -52 11 -29 32 -93 46 -143 15 -49 29 -97 32
-105 3 -8 28 59 55 150 51 171 68 200 114 200 17 0 24 -7 29 -31z m2241 -55
c15 -15 16 -47 13 -285 -2 -147 -6 -271 -10 -274 -4 -4 -23 -4 -43 -1 l-35 7
0 284 0 285 29 0 c16 0 37 -7 46 -16z m-2831 -41 c2 -10 14 -49 25 -88 30
-104 101 -391 101 -409 0 -15 -65 -40 -80 -31 -4 3 -14 34 -21 70 -14 71 -16
73 -82 54 -43 -12 -52 -26 -67 -113 -5 -33 -11 -60 -12 -61 -10 -6 -91 -35
-93 -33 -2 2 7 46 20 98 12 52 41 178 65 280 45 197 59 236 87 243 36 9 52 7
57 -10z m3056 -79 c19 -44 50 -117 68 -161 48 -119 59 -115 67 23 4 62 5 125
3 139 -6 27 -5 28 41 19 l31 -6 0 -273 c0 -151 -3 -280 -6 -288 -11 -29 -45
-5 -73 52 -16 31 -52 118 -82 193 -29 75 -56 135 -60 132 -4 -2 -10 2 -12 8
-3 7 -6 -62 -6 -154 -1 -167 -1 -168 -23 -168 -53 1 -53 -1 -57 298 l-3 279
38 -6 c37 -6 40 -9 74 -87z m398 -60 c9 -7 13 -574 5 -574 -6 0 -24 5 -42 11
l-31 11 0 288 0 289 33 -11 c17 -6 33 -12 35 -14z m-3904 -7 c3 -12 6 -114 6
-226 1 -112 4 -209 7 -216 3 -10 24 -7 89 15 l84 29 0 -33 c0 -19 -6 -38 -12
-43 -16 -12 -219 -93 -234 -93 -12 0 -24 233 -24 451 l0 117 28 10 c41 16 49
14 56 -11z m2211 -426 c101 -25 189 -57 205 -76 11 -13 6 -15 -27 -15 -22 0
-64 4 -94 9 -30 5 -75 12 -102 15 -44 5 -47 4 -38 -13 7 -11 33 -24 68 -33
l58 -15 -30 -13 c-17 -7 -73 -13 -130 -14 -91 0 -111 3 -213 38 -98 33 -117
36 -141 26 -28 -11 -51 -46 -51 -76 0 -40 133 -57 565 -74 138 -6 267 -14 288
-19 54 -13 124 -59 161 -104 29 -37 31 -44 31 -121 -1 -66 -5 -88 -23 -117
-12 -20 -22 -42 -22 -49 0 -21 -31 -50 -52 -50 -10 0 -33 7 -49 16 -17 8 -45
14 -62 12 l-32 -3 33 -18 c21 -12 32 -25 32 -40 0 -12 9 -55 20 -95 32 -116
27 -139 -31 -127 -40 9 -88 63 -152 170 -31 52 -68 99 -87 113 -34 23 -74 29
-85 12 -3 -5 21 -56 55 -113 59 -102 76 -149 120 -337 23 -102 49 -169 136
-356 13 -28 24 -56 24 -62 0 -7 13 -12 29 -12 59 0 170 -30 220 -60 29 -16 56
-30 61 -30 5 0 40 -30 77 -66 98 -94 152 -124 231 -124 34 0 62 -3 62 -7 -1
-14 -79 -73 -117 -89 -47 -20 -127 -14 -206 16 -32 12 -63 20 -70 17 -6 -2
-20 7 -30 20 -10 13 -23 20 -29 17 -15 -10 -3 -156 17 -194 16 -30 16 -37 1
-96 -22 -86 -21 -96 14 -129 19 -18 30 -39 30 -56 0 -19 -9 -34 -30 -49 -35
-25 -38 -45 -10 -62 27 -17 25 -32 -6 -53 -28 -18 -26 -27 8 -29 41 -3 50 -15
46 -63 -4 -58 18 -78 54 -48 14 12 11 7 -6 -13 -17 -17 -31 -32 -32 -32 -1 0
-11 15 -23 33 l-21 32 -12 -32 c-7 -18 -16 -33 -20 -33 -4 0 -21 12 -38 28
l-31 27 15 56 c15 57 28 180 29 274 1 54 -41 174 -74 210 -18 20 -17 23 16
105 41 100 46 170 16 225 -13 25 -17 48 -14 75 5 39 5 40 -24 40 -19 0 -38 9
-53 25 -19 20 -30 24 -56 19 -25 -4 -37 -1 -53 15 -43 43 -88 17 -77 -45 6
-31 5 -35 -11 -32 -10 2 -35 27 -57 56 -47 63 -66 68 -59 14 5 -34 2 -39 -22
-50 -25 -12 -26 -14 -13 -35 23 -36 153 -96 228 -104 36 -5 65 -12 65 -18 0
-5 -22 -22 -50 -38 -45 -25 -57 -27 -131 -24 -63 2 -93 9 -137 31 -69 33 -134
105 -150 163 -7 28 -17 43 -27 43 -9 0 -34 25 -55 56 -22 31 -41 51 -43 45 -6
-19 52 -130 103 -196 l47 -60 -4 -70 c-3 -53 -14 -95 -46 -174 -42 -102 -54
-171 -30 -171 7 0 27 15 45 32 28 27 35 30 43 18 13 -21 12 -105 -2 -152 -10
-33 -9 -41 4 -54 14 -14 18 -14 37 8 52 54 64 86 58 150 -5 64 -8 68 -66 100
-40 22 -40 50 -1 111 36 57 52 65 78 39 13 -13 28 -18 46 -15 37 7 32 -11 -10
-36 l-36 -22 36 -32 c23 -20 37 -42 37 -57 2 -56 -24 -188 -48 -237 -21 -46
-28 -53 -54 -53 -32 0 -36 -10 -17 -40 10 -16 10 -25 -4 -47 -29 -49 -58 -64
-102 -53 -45 10 -50 17 -71 87 -14 49 -20 95 -8 65 4 -10 8 -10 19 -1 21 17
18 30 -22 106 -20 37 -44 90 -55 117 -11 26 -34 69 -51 95 -18 25 -38 66 -44
91 l-12 45 -11 -28 c-18 -46 -13 -66 34 -141 47 -77 119 -225 112 -232 -2 -3
-18 11 -36 31 -17 20 -35 34 -39 32 -4 -3 -34 -7 -67 -11 -63 -6 -55 3 24 24
43 11 43 12 38 47 -4 20 -22 60 -42 90 -56 84 -58 95 -34 173 26 87 67 151
121 190 59 43 66 59 38 82 -34 27 -49 23 -115 -34 -105 -90 -135 -108 -177
-108 -45 0 -148 33 -196 62 -18 11 -35 18 -38 15 -3 -3 -9 -39 -14 -79 -4 -40
-8 -58 -9 -40 -1 29 -3 32 -20 22 -36 -19 -59 -11 -98 35 -39 47 -62 55 -83
30 -16 -19 -5 -61 26 -98 26 -31 31 -78 11 -113 -11 -20 -93 -94 -104 -94 -2
0 -13 4 -23 10 -13 7 -21 6 -29 -4 -18 -21 -31 -77 -25 -102 12 -46 33 -36
135 66 58 58 108 100 120 100 10 0 36 -9 56 -20 48 -26 67 -25 87 3 l17 22
-12 -24 c-6 -13 -20 -26 -30 -28 -11 -3 -19 -14 -19 -25 0 -19 -1 -19 -19 3
l-20 24 -20 -20 c-18 -17 -77 -121 -158 -274 -13 -25 -23 -57 -23 -73 0 -42
-22 -89 -78 -162 -48 -63 -49 -67 -56 -152 -5 -71 -10 -90 -26 -101 -11 -8
-20 -24 -20 -36 0 -49 -30 -133 -55 -155 -21 -18 -38 -22 -91 -22 l-66 0 7 50
c8 58 -3 65 -37 20 -26 -35 -38 -38 -38 -10 0 27 22 70 66 127 19 24 34 50 34
56 0 7 25 44 56 82 72 91 73 91 89 189 7 46 27 114 43 152 26 59 31 86 37 189
7 145 9 151 50 290 18 61 36 142 40 180 13 134 45 224 129 358 67 107 93 173
105 259 27 196 73 258 291 387 58 34 150 98 205 142 112 90 142 109 180 109
14 0 96 -23 183 -51 86 -28 195 -59 242 -69 74 -17 88 -17 107 -5 49 32 56
154 12 202 -13 14 -46 37 -74 51 -49 25 -55 26 -335 34 -352 9 -454 20 -526
54 -86 41 -93 77 -25 147 42 44 74 63 151 88 78 25 259 25 365 0z m607 -918
c36 -42 43 -78 39 -207 -1 -44 -5 -53 -42 -87 -48 -44 -47 -49 15 -139 43 -61
44 -64 28 -87 -33 -45 -105 -41 -129 7 -18 35 -16 138 3 222 15 68 15 134 -1
211 -6 29 16 82 37 90 23 10 35 7 50 -10z m-1050 -1373 c-26 -18 -44 -40 -47
-57 -11 -54 -40 -95 -85 -125 -54 -35 -105 -105 -125 -170 -12 -42 -47 -97
-110 -174 -19 -24 -35 -33 -65 -36 -33 -3 -39 -1 -35 13 3 9 2 26 -3 38 l-8
22 -26 -20 c-23 -18 -27 -19 -32 -5 -23 61 9 124 100 194 111 85 137 118 172
218 18 50 31 97 30 104 -4 17 51 25 176 27 l99 1 -41 -30z m98 -25 c20 -24 2
-93 -36 -135 -37 -41 -42 -55 -19 -64 23 -8 18 -23 -12 -38 -18 -9 -28 -23
-30 -42 -2 -16 -10 -34 -17 -40 -8 -6 -16 -18 -19 -26 -3 -8 -6 -3 -6 12 -1
35 -18 44 -42 22 -18 -16 -19 -16 -19 5 0 27 43 112 66 132 27 22 92 126 99
159 7 33 17 37 35 15z"/>
<path d="M4244 5178 c-37 -17 -44 -51 -44 -202 0 -141 0 -144 26 -169 35 -35
60 -42 89 -23 41 27 46 50 46 191 0 142 -10 183 -50 205 -24 12 -39 12 -67 -2z"/>
<path d="M4646 5193 l-29 -5 7 -76 c3 -42 10 -80 15 -85 28 -28 141 27 141 68
0 25 -39 95 -53 95 -6 0 -21 2 -32 4 -11 2 -33 1 -49 -1z"/>
<path d="M3819 5138 c-1 -18 -2 -50 -3 -70 -3 -53 4 -60 54 -52 59 10 84 36
77 81 -9 53 -32 73 -84 73 -42 0 -43 -1 -44 -32z"/>
<path d="M3813 4848 l3 -83 34 -3 c52 -5 78 6 96 40 18 35 13 82 -13 110 -12
13 -31 18 -70 18 l-54 0 4 -82z"/>
<path d="M4698 3671 c4 -10 26 -40 50 -67 44 -51 58 -83 48 -109 -7 -21 -67
-45 -107 -45 -62 0 -20 -12 55 -15 42 -2 81 -7 87 -10 6 -4 8 -22 6 -41 -6
-43 6 -51 34 -23 31 31 20 79 -34 148 -24 31 -63 84 -86 119 -40 59 -68 83
-53 43z"/>
<path d="M4139 3353 c-1 -10 0 -31 1 -46 1 -17 -7 -38 -18 -50 -10 -12 -22
-32 -25 -44 -5 -21 -2 -22 47 -20 l51 2 3 -46 c3 -47 3 -47 58 -68 31 -11 58
-21 60 -21 11 0 0 20 -36 64 -35 42 -40 55 -40 97 0 37 -4 49 -15 49 -8 0 -25
21 -37 47 -24 50 -47 67 -49 36z"/>
</g>
</svg>
